<svg version="1.1" viewBox="0 0 1379.2 285.03" xmlns="http://www.w3.org/2000/svg"><path d="m0 142.5v-142.5h63.428c66.7 0 72.394 0.29991 87.46 4.6064 18.12 5.1791 32.882 13.991 44.707 26.687 16.786 18.022 24.23 39.678 23.101 67.207-0.64169 15.645-3.024 25.723-8.8037 37.241-11.527 22.972-32.499 37.902-63.892 45.484-7.5364 1.8201-12.921 2.1221-47.5 2.664l-39 0.61116-0.5185 100.5h-58.982zm132.5-8.8058c17.886-5.9748 26.642-18.612 26.812-38.694 0.21242-25.135-12.589-41.645-36.072-46.523-5.6858-1.181-13.386-1.4506-35.5-1.2426l-28.239 0.26556-0.26092 43.5c-0.14351 23.925-0.02901 44.105 0.25443 44.843 0.42119 1.0979 6.4073 1.2684 32.761 0.93335 31.758-0.4038 32.367-0.45041 40.246-3.0825zm118.5 8.8058v-142.5h191v46.986l-131.5 0.51438-0.5266 67.5h113.03v45.983l-112.5 0.51665v76l132.5 0.51428v46.986h-192zm218 0v-142.5h191v46.986l-131.5 0.51438-0.5266 67.5h113.03v45.983l-112.5 0.51665v76l132.5 0.51428v46.986h-192zm218 0v-142.5h62.122c67.556 0 74.667 0.44265 91.276 5.6817 29.442 9.2871 48.375 27.919 55.762 54.876 1.8223 6.6493 2.1863 10.709 2.2367 24.942 0.0725 20.507-1.8372 29.726-9.05 43.692-7.1393 13.823-21.273 27.083-36.718 34.448-2.4284 1.158-3.6078 2.3298-3.3458 3.3243 0.22253 0.84473 13.975 27.161 30.561 58.48 16.586 31.319 30.156 57.532 30.156 58.25 0 1.0467-6.2934 1.3042-31.75 1.2989l-31.75-7e-3 -53.706-105.02-46.294 0.53675-0.51784 104.5h-58.982zm125.16-12.333c12.1-3.9812 21.114-12.161 25.215-22.881 2.4122-6.3052 3.2758-21.372 1.6284-28.411-1.9949-8.5228-5.9621-15.638-11.584-20.776-10.184-9.308-20.664-11.332-56.418-10.897l-24.5 0.2981-0.2613 41.499c-0.14371 22.825-0.0298 42.103 0.25314 42.84 0.41891 1.0916 5.9458 1.2643 29.761 0.92957 26.754-0.37601 29.814-0.59773 35.905-2.6017zm122.84 12.333v-142.5h191v46.986l-131.5 0.51438-0.5266 67.5h113.03v45.983l-112.5 0.51665v76l132.5 0.51428v46.986h-192zm201.41 135.26c15.97-26.472 80.591-136.09 80.591-136.71 0-0.4174-18.45-32.173-41-70.568-22.55-38.395-41-69.962-41-70.149s15.195-0.33922 33.767-0.33922h33.767l26.408 48.621c20.798 38.293 26.636 48.308 27.483 47.148 0.5913-0.81009 12.55-22.674 26.575-48.586l25.5-47.113 33.75-0.03506c18.562-0.01929 33.75 0.21066 33.75 0.51098 0 0.30032-18.49 32.03-41.09 70.509l-41.09 69.963 2.7767 4.7406c5.4353 9.2794 78.621 132.8 80.576 135.99l1.9896 3.25h-68.798l-26.326-48.006c-14.479-26.403-26.858-48.733-27.509-49.623-0.9903-1.3544-5.5891 6.41-28.285 47.756l-27.103 49.373-69.114 0.52588z" style="fill:#fff"/></svg>
