<svg version="1.1" viewBox="0 0 1404 286" xmlns="http://www.w3.org/2000/svg">
 <path d="m0 143v-143l58.75 6e-3c62.272 6e-3 69.26 0.41501 86.134 5.0384 27.868 7.6354 47.661 24.569 56.658 48.471 9.7088 25.794 8.0415 61.855-4.0219 86.985-12.014 25.026-36.524 42.1-69.02 48.078-5.6526 1.04-16.904 1.8438-30.25 2.1613l-21.25 0.50544v94.755h-77zm106.76-17.348c14.965-5.5186 22.614-17.53 22.56-35.423-0.0217-7.1356-0.42588-9.0566-2.9455-14-5.5626-10.914-14.078-14.23-36.542-14.23h-12.833v66.265l12.75-0.52092c7.8852-0.32216 14.376-1.1205 17.011-2.0922zm139.24 17.348v-143h170.03l-0.5289 61.5-92.5 0.51997v44.98h86v62h-86v54h93v63h-170zm212 0v-143h170v62h-93v45h86v62h-86v54h93v63h-170zm212 0v-143h57.449c61.911 0 70.514 0.5188 89.822 5.4166 40.007 10.149 61.083 34.427 63.444 73.083 1.4551 23.828-6.0003 45.185-21.555 61.744-6.6986 7.1317-20.418 18.068-24.152 19.253-1.1041 0.35043-2.0075 1.0596-2.0075 1.5759s18.45 28.608 41 62.427 41 61.72 41 62.004-19.622 0.39938-43.604 0.2561l-43.604-0.26051-60.293-103.47-19.5-0.0288v104h-78zm108.9-21.418c11.098-3.0428 19.374-10.822 22.26-20.925 1.8761-6.5681 1.6341-19.394-0.4688-24.844-4.7174-12.225-17.824-17.789-41.942-17.806l-10.75-8e-3v66.302l12.75-0.61953c7.0125-0.34074 15.18-1.2858 18.151-2.1002zm155.1 21.418v-143h170v62h-93v45h86v62h-86v54h93v63h-170zm228.61 71.351c25.561-39.407 46.903-72.449 47.426-73.427 0.7666-1.4324-7.516-15.042-42.663-70.101-23.988-37.578-44.07-68.891-44.627-69.584-0.8129-1.0113 7.5379-1.2091 42.202-1l43.215 0.26072 25.264 43.264c13.895 23.795 25.452 43.453 25.683 43.684 0.2306 0.23052 11.108-18.602 24.172-41.85 13.064-23.248 24.306-43.024 24.983-43.946 1.1238-1.5317 5.0094-1.654 44.93-1.414l43.7 0.26268-43.533 70c-23.943 38.5-44.214 71.147-45.047 72.549-1.4935 2.5147-0.8533 3.5009 47.061 72.5l48.575 69.951-44.228 0.27187c-42.008 0.25822-44.303 0.17901-45.728-1.5781-0.825-1.0175-13.425-21.038-28-44.49-14.575-23.452-26.725-42.647-27-42.656-0.275-9e-3 -12.83 20.002-27.9 44.468l-27.4 44.484h-87.56z" style="fill:#fff"/>
</svg>
